<svg width="26" height="34" viewBox="0 0 26 34" fill="none" xmlns="http://www.w3.org/2000/svg">
<path d="M18.3661 10.824C18.3661 9.864 17.8861 9.048 16.9261 8.376C15.9981 7.704 14.8461 7.368 13.4701 7.368C12.2541 7.368 11.1981 7.656 10.3021 8.232C9.40613 8.808 8.81413 9.56 8.52613 10.488L0.894125 8.424C1.66213 5.896 3.16613 3.88 5.40613 2.376C7.67813 0.839998 10.3341 0.0719976 13.3741 0.0719976C16.9901 0.0719976 19.9821 1.096 22.3501 3.144C24.7821 5.192 25.9981 7.768 25.9981 10.872C25.9981 12.28 25.7101 13.592 25.1341 14.808C24.5901 15.992 23.8701 16.936 22.9741 17.64C21.3421 18.888 19.7901 19.72 18.3181 20.136L17.4541 20.328L17.0701 22.296H10.6861L9.82213 16.2C10.3661 16.136 11.3581 15.896 12.7981 15.48C13.7901 15.128 14.6541 14.792 15.3901 14.472C16.2221 14.056 16.9261 13.528 17.5021 12.888C18.0781 12.216 18.3661 11.528 18.3661 10.824ZM9.72613 29.592C9.72613 28.408 10.1101 27.432 10.8781 26.664C11.6781 25.864 12.6541 25.464 13.8061 25.464C14.9901 25.464 15.9661 25.864 16.7341 26.664C17.5341 27.432 17.9341 28.408 17.9341 29.592C17.9341 30.744 17.5341 31.72 16.7341 32.52C15.9661 33.288 14.9901 33.672 13.8061 33.672C12.6541 33.672 11.6781 33.288 10.8781 32.52C10.1101 31.72 9.72613 30.744 9.72613 29.592Z" fill="#EEEB9A"/>
</svg>
