<svg width="9" height="34" viewBox="0 0 9 34" fill="none" xmlns="http://www.w3.org/2000/svg">
<path d="M4.48763 25.608C5.60763 25.608 6.53563 25.992 7.27163 26.76C8.03963 27.496 8.42363 28.424 8.42363 29.544C8.42363 30.664 8.03963 31.608 7.27163 32.376C6.53563 33.112 5.60763 33.48 4.48763 33.48C3.36763 33.48 2.43963 33.112 1.70363 32.376C0.967625 31.608 0.599625 30.664 0.599625 29.544C0.599625 28.424 0.967625 27.496 1.70363 26.76C2.47163 25.992 3.39963 25.608 4.48763 25.608ZM7.55963 22.248H1.46363L0.503625 0.599999H8.51963L7.55963 22.248Z" fill="#DC8B8B"/>
</svg>
