<svg width="18" height="17" viewBox="0 0 18 17" fill="none" xmlns="http://www.w3.org/2000/svg">
<path d="M9.06 0.299999C11.38 0.299999 13.3267 1.06667 14.9 2.6C16.4867 4.12 17.28 5.96 17.28 8.12C17.28 9.4 16.98 10.4533 16.38 11.28C15.8067 12.0933 15.0467 12.5 14.1 12.5C13.58 12.5 13.1067 12.3667 12.68 12.1C12.2533 11.8333 11.9467 11.48 11.76 11.04C11.0267 12.0133 10.0333 12.5 8.78 12.5C7.71333 12.5 6.82 12.12 6.1 11.36C5.38 10.5867 5.02 9.63333 5.02 8.5C5.02 7.36667 5.38 6.42 6.1 5.66C6.82 4.88667 7.71333 4.5 8.78 4.5C9.91333 4.5 10.84 4.91333 11.56 5.74V4.68H12.8V10.08C12.8 10.4133 12.9267 10.6933 13.18 10.92C13.4467 11.1467 13.76 11.26 14.12 11.26C14.6933 11.26 15.1533 10.98 15.5 10.42C15.8467 9.84667 16.02 9.1 16.02 8.18C16.02 6.34 15.3467 4.78 14 3.5C12.6667 2.20667 11.02 1.56 9.06 1.56C7.08667 1.56 5.43333 2.22667 4.1 3.56C2.78 4.88 2.12 6.52667 2.12 8.5C2.12 10.4733 2.78 12.12 4.1 13.44C5.42 14.7733 7.04667 15.44 8.98 15.44C10.1667 15.44 11.2267 15.1533 12.16 14.58L12.66 15.72C11.5667 16.3733 10.3267 16.7 8.94 16.7C6.66 16.7 4.74 15.9133 3.18 14.34C1.63333 12.7667 0.86 10.82 0.86 8.5C0.86 6.16667 1.64 4.22 3.2 2.66C4.77333 1.08667 6.72667 0.299999 9.06 0.299999ZM7.06 6.56C6.56667 7.06667 6.32 7.71333 6.32 8.5C6.32 9.27333 6.56667 9.92667 7.06 10.46C7.55333 10.98 8.18 11.24 8.94 11.24C9.67333 11.24 10.2933 10.98 10.8 10.46C11.3067 9.91333 11.56 9.26 11.56 8.5C11.56 7.74 11.3067 7.09333 10.8 6.56C10.3067 6.02667 9.68667 5.76 8.94 5.76C8.18 5.76 7.55333 6.02667 7.06 6.56Z" fill="#D2D2D2"/>
</svg>
