<svg width="32" height="32" viewBox="0 0 32 32" fill="none" xmlns="http://www.w3.org/2000/svg">
<path d="M9.34483 25.8002C9.74195 25.9964 10.181 26.0497 10.6047 25.9531C11.0284 25.8565 11.4171 25.6145 11.7201 25.2587L16 20.3377L20.2799 25.2587C20.4795 25.4928 20.7172 25.6788 20.9794 25.8059C21.2415 25.9331 21.5229 25.9988 21.8072 25.9994C22.0994 25.9985 22.3886 25.9307 22.6581 25.8002C23.0584 25.6129 23.4006 25.2903 23.64 24.8747C23.8794 24.4591 24.0048 23.9697 23.9999 23.4704V10.2039C23.9987 9.08934 23.6152 8.02084 22.9335 7.23276C22.2518 6.44467 21.3276 6.00134 20.3636 6L11.6364 6C10.6724 6.00134 9.74814 6.44467 9.06645 7.23276C8.38476 8.02084 8.00128 9.08934 8.00013 10.2039V23.4704C7.99543 23.9701 8.12127 24.4598 8.36119 24.8754C8.6011 25.2911 8.94392 25.6134 9.34483 25.8002Z" fill="#D8DEF0"/>
</svg>
