<svg width="42" height="32" viewBox="0 0 42 32" fill="none" xmlns="http://www.w3.org/2000/svg">
<path d="M15.964 0.419005V0.666012C15.682 0.72668 15.3781 0.848016 15.0521 1.03002C14.7349 1.21203 14.4001 1.5067 14.0477 1.91405L11.5631 4.82613L12.3296 3.7471L15.475 8.57023C15.5983 8.76957 15.7305 8.92991 15.8714 9.05125C16.0124 9.17258 16.1974 9.27658 16.4265 9.36325V9.62326C16.1181 9.60593 15.7745 9.59726 15.3957 9.59726C15.0168 9.58859 14.6732 9.58426 14.3648 9.58426C14.1798 9.58426 13.9552 9.58859 13.6908 9.59726C13.4265 9.59726 13.0917 9.60593 12.6864 9.62326V9.36325C13.0477 9.34592 13.2635 9.29825 13.334 9.22025C13.4133 9.13358 13.3825 8.98624 13.2415 8.77824L11.3252 5.72315C11.2019 5.52381 11.0917 5.37648 10.9948 5.28114C10.8979 5.17714 10.801 5.1078 10.7041 5.07313C10.6072 5.0298 10.4794 5.0038 10.3208 4.99513V4.72212C10.7085 4.71346 11.0521 4.60945 11.3516 4.41012C11.66 4.21078 11.9948 3.90743 12.356 3.50009L13.1358 2.57706C13.4706 2.18705 13.6644 1.85338 13.7173 1.57604C13.7789 1.29003 13.7217 1.06902 13.5455 0.913018C13.3781 0.757014 13.1182 0.674678 12.7657 0.666012V0.419005C13.0917 0.427672 13.4001 0.436338 13.6908 0.445005C13.9904 0.453672 14.334 0.458005 14.7217 0.458005C15.2327 0.458005 15.6468 0.445005 15.964 0.419005ZM11.3913 0.419005V0.679012C11.1094 0.687679 10.8935 0.722346 10.7437 0.783015C10.6028 0.835016 10.5102 0.939019 10.4662 1.09502C10.4221 1.24236 10.4001 1.47637 10.4001 1.79704V8.24522C10.4001 8.55723 10.4221 8.79124 10.4662 8.94724C10.5191 9.10325 10.616 9.20725 10.7569 9.25925C10.8979 9.31125 11.1094 9.34592 11.3913 9.36325V9.62326C11.1534 9.60593 10.8539 9.59726 10.4926 9.59726C10.1314 9.58859 9.76575 9.58426 9.39571 9.58426C8.97281 9.58426 8.57193 9.58859 8.19307 9.59726C7.82303 9.59726 7.52788 9.60593 7.30762 9.62326V9.36325C7.58955 9.34592 7.80101 9.31125 7.94197 9.25925C8.08294 9.20725 8.17545 9.10325 8.21951 8.94724C8.27237 8.79124 8.2988 8.55723 8.2988 8.24522V1.79704C8.2988 1.47637 8.27237 1.24236 8.21951 1.09502C8.17545 0.939019 8.07854 0.835016 7.92876 0.783015C7.78779 0.722346 7.58074 0.687679 7.30762 0.679012V0.419005C7.52788 0.427672 7.82303 0.436338 8.19307 0.445005C8.57193 0.453672 8.97281 0.458005 9.39571 0.458005C9.76575 0.458005 10.1314 0.453672 10.4926 0.445005C10.8539 0.436338 11.1534 0.427672 11.3913 0.419005Z" fill="black"/>
<path d="M20.0459 0.25C20.5657 0.25 20.9666 0.306335 21.2485 0.419005C21.5305 0.523007 21.7727 0.635677 21.9754 0.757014C22.0811 0.817682 22.1648 0.86535 22.2265 0.900018C22.297 0.926019 22.363 0.939019 22.4247 0.939019C22.5657 0.939019 22.6626 0.748347 22.7155 0.367003H23.0194C23.0106 0.531675 22.9974 0.731013 22.9798 0.96502C22.971 1.19036 22.9622 1.48937 22.9534 1.86205C22.9534 2.23472 22.9534 2.7244 22.9534 3.33109H22.6494C22.6141 2.88041 22.5084 2.44273 22.3322 2.01805C22.156 1.59337 21.9049 1.24669 21.5789 0.97802C21.2617 0.700679 20.8697 0.562009 20.4027 0.562009C19.9798 0.562009 19.6318 0.679012 19.3587 0.913018C19.0855 1.14702 18.949 1.47203 18.949 1.88805C18.949 2.23472 19.0371 2.53373 19.2133 2.78507C19.3895 3.02774 19.645 3.26608 19.9798 3.50009C20.3234 3.7341 20.7375 4.01577 21.2221 4.34511C21.645 4.61379 22.0238 4.88246 22.3586 5.15114C22.6934 5.41981 22.9622 5.72315 23.1648 6.06116C23.3674 6.39917 23.4688 6.80218 23.4688 7.2702C23.4688 7.84221 23.3146 8.31456 23.0062 8.68723C22.7067 9.05991 22.3102 9.34159 21.8168 9.53226C21.3234 9.71426 20.7816 9.80527 20.1913 9.80527C19.645 9.80527 19.2089 9.75327 18.8829 9.64926C18.5569 9.54526 18.2838 9.43692 18.0635 9.32425C17.8697 9.20292 17.7199 9.14225 17.6142 9.14225C17.4732 9.14225 17.3763 9.33292 17.3234 9.71426H17.0195C17.0371 9.50626 17.0459 9.26359 17.0459 8.98624C17.0547 8.7089 17.0591 8.34923 17.0591 7.90721C17.0679 7.45653 17.0723 6.88885 17.0723 6.20417H17.3763C17.4115 6.77618 17.5084 7.31353 17.667 7.81621C17.8344 8.31022 18.0855 8.7089 18.4203 9.01224C18.7639 9.31559 19.2177 9.46726 19.7816 9.46726C20.2397 9.46726 20.6274 9.34592 20.9446 9.10325C21.2617 8.86057 21.4203 8.49656 21.4203 8.01122C21.4203 7.47387 21.2353 7.03186 20.8653 6.68518C20.4952 6.32984 20.0194 5.96583 19.438 5.59315C19.0239 5.32447 18.6362 5.0558 18.275 4.78713C17.9137 4.51845 17.623 4.21078 17.4027 3.8641C17.1913 3.51742 17.0855 3.10575 17.0855 2.62907C17.0855 2.08305 17.2221 1.63671 17.4952 1.29003C17.7772 0.934685 18.1428 0.674678 18.5921 0.510007C19.0503 0.336669 19.5349 0.25 20.0459 0.25Z" fill="black"/>
<path d="M32.4949 0.419005C32.4597 0.861017 32.4333 1.2857 32.4156 1.69304C32.4068 2.10038 32.4024 2.41239 32.4024 2.62907C32.4024 2.81974 32.4068 3.00174 32.4156 3.17508C32.4245 3.34842 32.4333 3.49576 32.4421 3.61709H32.1381C31.9971 2.88907 31.8165 2.31272 31.5963 1.88805C31.3848 1.46337 31.1293 1.16436 30.8298 0.99102C30.5302 0.809015 30.1778 0.718012 29.7725 0.718012H29.4685V8.14122C29.4685 8.4879 29.5038 8.7479 29.5743 8.92124C29.6536 9.09458 29.7945 9.21158 29.9972 9.27225C30.1998 9.32425 30.495 9.35459 30.8826 9.36325V9.62326C30.6095 9.61459 30.2439 9.60593 29.7857 9.59726C29.3364 9.58859 28.865 9.58426 28.3716 9.58426C27.887 9.58426 27.4289 9.58859 26.9972 9.59726C26.5655 9.60593 26.2174 9.61459 25.9531 9.62326V9.36325C26.3496 9.35459 26.6492 9.32425 26.8518 9.27225C27.0544 9.21158 27.191 9.09458 27.2615 8.92124C27.332 8.7479 27.3672 8.4879 27.3672 8.14122V0.718012H27.0765C26.6712 0.718012 26.3188 0.809015 26.0192 0.99102C25.7197 1.16436 25.4641 1.46337 25.2527 1.88805C25.0412 2.30406 24.8562 2.88041 24.6976 3.61709H24.3937C24.4113 3.49576 24.4201 3.34842 24.4201 3.17508C24.4289 3.00174 24.4333 2.81974 24.4333 2.62907C24.4333 2.41239 24.4245 2.10038 24.4069 1.69304C24.3981 1.2857 24.376 0.861017 24.3408 0.419005C24.7461 0.427672 25.1866 0.436338 25.6624 0.445005C26.147 0.453672 26.6315 0.458005 27.1161 0.458005C27.6007 0.458005 28.0368 0.458005 28.4245 0.458005C28.821 0.458005 29.2571 0.458005 29.7328 0.458005C30.2174 0.458005 30.702 0.453672 31.1866 0.445005C31.6712 0.436338 32.1073 0.427672 32.4949 0.419005Z" fill="black"/>
<path d="M41.9967 0.419005V0.679012C41.7147 0.71368 41.5033 0.787348 41.3623 0.900018C41.2214 1.00402 41.1244 1.17303 41.0716 1.40703C41.0275 1.64104 41.0055 1.97038 41.0055 2.39506V9.64926C40.8998 9.6406 40.7896 9.63626 40.6751 9.63626C40.5694 9.63626 40.4548 9.6406 40.3315 9.64926L34.5958 2.49906V7.4912C34.5958 7.96788 34.6223 8.33623 34.6751 8.59623C34.728 8.84757 34.8425 9.02958 35.0187 9.14225C35.2038 9.24625 35.4901 9.31992 35.8778 9.36325V9.62326C35.7104 9.60593 35.4901 9.59726 35.217 9.59726C34.9439 9.58859 34.6883 9.58426 34.4505 9.58426C34.2478 9.58426 34.0408 9.58859 33.8293 9.59726C33.6179 9.59726 33.4417 9.60593 33.3007 9.62326V9.36325C33.5826 9.31992 33.7941 9.24625 33.9351 9.14225C34.076 9.03825 34.1685 8.86924 34.2126 8.63523C34.2654 8.39256 34.2919 8.06322 34.2919 7.64721V1.79704C34.2919 1.47637 34.2654 1.24236 34.2126 1.09502C34.1685 0.939019 34.0716 0.835016 33.9218 0.783015C33.7809 0.722346 33.5738 0.687679 33.3007 0.679012V0.419005C33.4417 0.427672 33.6179 0.436338 33.8293 0.445005C34.0408 0.453672 34.2478 0.458005 34.4505 0.458005C34.6619 0.458005 34.8646 0.453672 35.0584 0.445005C35.2522 0.436338 35.4284 0.427672 35.587 0.419005L40.7015 6.62018V2.55106C40.7015 2.07438 40.6751 1.71037 40.6222 1.45903C40.5694 1.19903 40.4504 1.01269 40.2654 0.900018C40.0892 0.787348 39.8073 0.71368 39.4196 0.679012V0.419005C39.587 0.427672 39.8073 0.436338 40.0804 0.445005C40.3535 0.453672 40.609 0.458005 40.8469 0.458005C41.0584 0.458005 41.2654 0.453672 41.468 0.445005C41.6795 0.436338 41.8557 0.427672 41.9967 0.419005Z" fill="black"/>
<path d="M25.2155 11.2471V11.8167C24.589 11.9306 23.953 12.1679 23.3074 12.5286C22.6619 12.8894 21.9975 13.478 21.314 14.2944L15.9316 20.9016L17.2131 18.8511L24.0194 29.1036C24.3232 29.5403 24.6364 29.8915 24.9592 30.1574C25.2819 30.4232 25.6996 30.651 26.2122 30.8409V31.4104C25.6237 31.3725 24.9497 31.3535 24.1903 31.3535C23.4309 31.3345 22.7379 31.325 22.1114 31.325C21.7506 31.325 21.295 31.3345 20.7444 31.3535C20.2128 31.3535 19.5388 31.3725 18.7225 31.4104V30.8409C19.4819 30.8029 19.9375 30.6985 20.0894 30.5276C20.2413 30.3377 20.1749 30.015 19.8901 29.5593L15.7323 23.009C15.4285 22.5154 15.1532 22.1452 14.9064 21.8983C14.6786 21.6515 14.4413 21.4901 14.1944 21.4142C13.9476 21.3193 13.6439 21.2623 13.2831 21.2433V20.6737C14.0805 20.6358 14.7925 20.4269 15.419 20.0472C16.0455 19.6675 16.672 19.1074 17.2986 18.3669L19.3205 15.8322C20.023 14.9968 20.4501 14.2849 20.602 13.6963C20.7539 13.1077 20.6685 12.652 20.3457 12.3293C20.023 12.0065 19.4819 11.8356 18.7225 11.8167V11.2471C19.368 11.2661 19.9945 11.285 20.602 11.304C21.2096 11.323 21.874 11.3325 22.5955 11.3325C23.6966 11.3325 24.57 11.304 25.2155 11.2471ZM15.5899 11.2471V11.8167C14.9823 11.8356 14.5172 11.9116 14.1944 12.0445C13.8907 12.1584 13.6818 12.3862 13.5679 12.728C13.454 13.0508 13.3971 13.5634 13.3971 14.2659V28.3916C13.3971 29.0751 13.454 29.5878 13.5679 29.9295C13.6818 30.2713 13.8907 30.4991 14.1944 30.613C14.5172 30.7269 14.9823 30.8029 15.5899 30.8409V31.4104C15.1152 31.3725 14.5077 31.3535 13.7673 31.3535C13.0268 31.3345 12.2769 31.325 11.5175 31.325C10.6632 31.325 9.86577 31.3345 9.12534 31.3535C8.3849 31.3535 7.77737 31.3725 7.30273 31.4104V30.8409C7.92925 30.8029 8.3944 30.7269 8.69816 30.613C9.02092 30.4991 9.22976 30.2713 9.32468 29.9295C9.43859 29.5878 9.49555 29.0751 9.49555 28.3916V14.2659C9.49555 13.5634 9.43859 13.0508 9.32468 12.728C9.22976 12.3862 9.02092 12.1584 8.69816 12.0445C8.3944 11.9116 7.92925 11.8356 7.30273 11.8167V11.2471C7.77737 11.2661 8.3849 11.285 9.12534 11.304C9.86577 11.323 10.6632 11.3325 11.5175 11.3325C12.2769 11.3325 13.0268 11.323 13.7673 11.304C14.5077 11.285 15.1152 11.2661 15.5899 11.2471Z" fill="black"/>
<path d="M41.998 11.2471V11.8167L31.7459 30.7554H35.5619C36.3024 30.7554 36.9764 30.651 37.5839 30.4421C38.2104 30.2333 38.7705 29.9105 39.2641 29.4738C39.7577 29.0182 40.1659 28.4106 40.4887 27.6512C40.8114 26.8917 41.0203 25.9614 41.1152 24.8602H41.7702C41.7132 25.4867 41.6847 26.3031 41.6847 27.3094C41.6847 27.7081 41.6942 28.2872 41.7132 29.0467C41.7512 29.8061 41.8082 30.594 41.8841 31.4104C40.8399 31.3725 39.6533 31.3535 38.3243 31.3535C37.0143 31.3345 35.8372 31.325 34.793 31.325C33.6159 31.325 32.3724 31.3345 31.0624 31.3535C29.7524 31.3535 28.5184 31.3725 27.3602 31.4104V30.8409L37.6693 11.9021H33.7678C32.7616 11.9021 31.8883 12.0825 31.1478 12.4432C30.4074 12.785 29.8094 13.364 29.3537 14.1804C28.8981 14.9968 28.5848 16.1265 28.4139 17.5695H27.7589C27.7969 17.2847 27.8159 16.9524 27.8159 16.5727C27.8349 16.193 27.8444 15.7848 27.8444 15.3481C27.8444 14.9494 27.8254 14.3703 27.7874 13.6109C27.7684 12.8514 27.721 12.0635 27.645 11.2471C28.6513 11.285 29.7619 11.3135 30.977 11.3325C32.211 11.3325 33.3122 11.3325 34.2804 11.3325C35.5145 11.3325 36.815 11.3325 38.1819 11.3325C39.5489 11.3135 40.8209 11.285 41.998 11.2471Z" fill="black"/>
<ellipse cx="2.28258" cy="29.1194" rx="2.28258" ry="2.29129" fill="black"/>
<ellipse cx="1.3696" cy="28.2044" rx="0.456517" ry="0.458258" fill="white"/>
</svg>
