<svg width="17" height="19" viewBox="0 0 17 19" fill="none" xmlns="http://www.w3.org/2000/svg">
<rect x="0.522949" y="5.52295" width="14.9912" height="12.5508" rx="2.26611" stroke="#D5D4D4" stroke-width="1.0459"/>
<mask id="path-2-inside-1_665_2651" fill="white">
<path d="M11.8525 4.18359C11.8525 3.07404 11.4485 2.00992 10.7293 1.22535C10.0101 0.44077 9.03467 8.37693e-08 8.01758 0C7.00048 -8.37693e-08 6.02505 0.44077 5.30585 1.22535C4.58666 2.00992 4.18262 3.07404 4.18262 4.18359L8.01758 4.18359H11.8525Z"/>
</mask>
<path d="M11.8525 4.18359C11.8525 3.07404 11.4485 2.00992 10.7293 1.22535C10.0101 0.44077 9.03467 8.37693e-08 8.01758 0C7.00048 -8.37693e-08 6.02505 0.44077 5.30585 1.22535C4.58666 2.00992 4.18262 3.07404 4.18262 4.18359L8.01758 4.18359H11.8525Z" stroke="#D5D4D4" stroke-width="2.0918" mask="url(#path-2-inside-1_665_2651)"/>
<circle cx="7.96338" cy="11.9634" r="2.26611" stroke="#D5D4D4" stroke-width="1.39453"/>
</svg>
