<svg width="32" height="32" viewBox="0 0 32 32" fill="none" xmlns="http://www.w3.org/2000/svg">
<path d="M16 4C9.37328 4 4 9.37224 4 15.9995C4 22.6268 9.37275 27.999 16 27.999C22.6278 27.999 28 22.6268 28 15.9995C28 9.37224 22.6278 4 16 4ZM16 7.58799C17.0527 7.58792 18.0622 8.00603 18.8066 8.75033C19.551 9.49463 19.9693 10.5042 19.9693 11.5568C19.9694 12.6095 19.5513 13.6191 18.807 14.3635C18.0627 15.1079 17.0532 15.5261 16.0005 15.5262C14.9479 15.5262 13.9383 15.1081 13.1939 14.3638C12.4495 13.6195 12.0313 12.61 12.0312 11.5573C12.0311 10.5047 12.4492 9.4951 13.1935 8.7507C13.9378 8.0063 14.9473 7.58806 16 7.58799ZM15.9974 24.8617C13.8946 24.864 11.8604 24.1139 10.2625 22.747C10.0765 22.5883 9.9272 22.3912 9.82474 22.1693C9.72228 21.9473 9.66914 21.7058 9.66898 21.4614C9.66898 19.2386 11.468 17.4596 13.6913 17.4596H18.3098C20.5336 17.4596 22.3257 19.2386 22.3257 21.4614C22.3259 21.7057 22.2729 21.9472 22.1706 22.1691C22.0682 22.391 21.9188 22.588 21.7328 22.7464C20.135 24.114 18.1004 24.8643 15.9974 24.8617Z" fill="#D8DEF0"/>
</svg>
